# xmcd
#
# Track frame offsets:
#	150
#	13857
#	27210
#	43982
#	56472
#	72087
#	87947
#	103825
#	119350
#	131992
#	145795
#	157547
#
# Disc length: 2340 seconds
#
# Revision: 0
# Processed by: cddbd v1.5.1PL2 Copyright (c) Steve Scherf et al.
# Submitted via: dBpowerAMP V4.0
#
DISCID=a009220c
DTITLE=Hokey Sloan - Look At Me
DYEAR=1992
DGENRE=Country
TTITLE0=Outlaw Lady
TTITLE1=Gravel Road
TTITLE2=If A Broken Heart Could Kill A Man
TTITLE3=Nothing Beats A Good Country Song
TTITLE4=It's A Crying Shame
TTITLE5=Daddy I Don't Want To See You Die
TTITLE6=Serena
TTITLE7=She Don't Want Me
TTITLE8=I Need To Talk About It
TTITLE9=I Thank God For You
TTITLE10=Country Music Legend
TTITLE11=Look At Me
EXTD=
EXTT0=
EXTT1=
EXTT2=
EXTT3=
EXTT4=
EXTT5=
EXTT6=
EXTT7=
EXTT8=
EXTT9=
EXTT10=
EXTT11=
PLAYORDER=
